# xmcd
#
# Track frame offsets:
#	150
#	11779
#	23924
#	41413
#	56395
#	74575
#	92454
#	110691
#	126241
#	142090
#	157911
#	173939
#	191259
#	208631
#	226581
#	240452
#	256969
#
# Disc length: 3662 seconds
#
# Revision: 0
# Processed by: cddbd v1.5.2PL0 Copyright (c) Steve Scherf et al.
# Submitted via: EasyCDDAExtractor 9.1.3.1
#
DISCID=e00e4c11
DTITLE=Oak Ridge Boys - Gold [CD2]
DYEAR=2007
DGENRE=Country
TTITLE0=Thank God For Kids
TTITLE1=American Made
TTITLE2=Love Song
TTITLE3=Ozark Mountain Jubilee
TTITLE4=I Guess It Never Hurts To Hurt Sometimes
TTITLE5=Everyday
TTITLE6=Make My Life With You
TTITLE7=Little Things
TTITLE8=Touch a Hand, Make a Friend
TTITLE9=Come On In (You Did the Best You Could Do)
TTITLE10=Juliet
TTITLE11=When You Get To the Heart
TTITLE12=You Made a Rock Of a Rolling Stone
TTITLE13=It Takes a Little Rain (To Make Love Grow)
TTITLE14=This Crazy Love
TTITLE15=Time In
TTITLE16=True Heart
EXTD=
EXTT0=
EXTT1=
EXTT2=
EXTT3=
EXTT4=
EXTT5=
EXTT6=
EXTT7=
EXTT8=
EXTT9=
EXTT10=
EXTT11=
EXTT12=
EXTT13=
EXTT14=
EXTT15=
EXTT16=
PLAYORDER=
